# xmcd CD database file
#
# Track frame offsets:
#	150
#	4241
#	39945
#	70019
#	83793
#	104450
#	132171
#	150728
#	197302
#	240093
#	244223
#	271188
#	280905
#
# Disc length: 4580 seconds
#
# Revision: 0
# Processed by: cddbd v1.5.2PL0 Copyright (c) Steve Scherf et al.
# Submitted via: CDex 1.51
#
DISCID=9d11e20d
DTITLE=Ray Brown/John Clayton&Christian McBride/Benny Green p./Gregory Hutchinson d. - SuperBass
DYEAR=1997
DGENRE=Jazz
TTITLE0=SuperBass Theme
TTITLE1=Blue Monk
TTITLE2=Bye, Bye Blackbird
TTITLE3=Lullaby of Birdland
TTITLE4=Who Cares ?
TTITLE5=Mack the Knife
TTITLE6=Centerpiece
TTITLE7=Sculler Blues
TTITLE8=Brown Funk
TTITLE9=SuperBass Theme
TTITLE10=Unknown
TTITLE11=Unknown
TTITLE12=Unknown
EXTD=YEAR: 1997
EXTT0=
EXTT1=
EXTT2=
EXTT3=
EXTT4=
EXTT5=
EXTT6=
EXTT7=
EXTT8=
EXTT9=
EXTT10=
EXTT11=
EXTT12=
PLAYORDER=
